<svg width="640" height="426" viewBox="0 0 640 426" fill="none" xmlns="http://www.w3.org/2000/svg">
<path fill-rule="evenodd" clip-rule="evenodd" d="M640 0H0V426H640V0ZM376.415 166.404C376.415 223.51 321.717 269.807 254.211 269.807C231.767 269.807 210.793 264.696 192.756 255.765C188.35 258.115 183.297 260.407 177.892 262.463C167.14 266.517 154.215 269.807 141.407 269.807C137.353 269.807 133.769 267.104 132.476 263.286C131.184 259.467 132.594 255.237 135.825 252.828L135.943 252.71C136.06 252.651 136.295 252.475 136.589 252.24C137.177 251.77 138.058 251.006 139.115 250.066C141.23 248.128 144.109 245.307 146.929 241.665C150.161 237.552 153.216 232.676 155.272 227.153C140.643 210.056 132.006 189.082 132.006 166.404C132.006 109.297 186.705 63 254.211 63C321.717 63 376.415 109.297 376.415 166.404ZM268.017 288.02C336.992 282.086 395.215 232.382 395.215 166.404L395.157 166.345C395.157 163.29 395.039 160.235 394.804 157.238C458.08 161.116 507.96 205.826 507.96 260.348C507.96 283.085 499.324 304.059 484.695 321.097C486.751 326.561 489.806 331.497 493.037 335.609C495.857 339.252 498.736 342.072 500.851 344.011C501.909 345.01 502.79 345.715 503.378 346.185C503.525 346.302 503.657 346.39 503.767 346.464C503.877 346.537 503.965 346.596 504.024 346.655L504.142 346.772C507.432 349.181 508.783 353.411 507.549 357.289C506.315 361.166 502.673 363.81 498.619 363.81C485.811 363.81 472.885 360.52 462.134 356.466C456.729 354.41 451.735 352.119 447.328 349.768C429.233 358.699 408.258 363.81 385.815 363.81C329.648 363.81 282.294 331.732 268.017 288.02Z" fill="#8EBBFF"/>
</svg>
