<svg width="640" height="426" viewBox="0 0 640 426" fill="none" xmlns="http://www.w3.org/2000/svg">
<rect width="640" height="426" fill="#565656"/>
<path fill-rule="evenodd" clip-rule="evenodd" d="M220 94C192.386 94 170 116.386 170 144V282C170 309.614 192.386 332 220 332H420C447.614 332 470 309.614 470 282V144C470 116.386 447.614 94 420 94H220ZM241.644 152.524C238.128 156.039 238.128 161.721 241.644 165.236L289.259 212.88L241.644 260.524C238.128 264.039 238.128 269.749 241.644 273.264C245.159 276.78 250.869 276.78 254.384 273.264L308.384 219.264C311.9 215.749 311.9 210.039 308.384 206.524L254.384 152.524C250.869 149.008 245.159 149.008 241.644 152.524ZM392 257.88H311C306.022 257.88 302 261.902 302 266.88C302 271.858 306.022 275.88 311 275.88H392C396.978 275.88 401 271.858 401 266.88C401 261.902 396.978 257.88 392 257.88Z" fill="white" fill-opacity="0.6"/>
<rect width="30" height="426" fill="white" fill-opacity="0.6"/>
</svg>
