<svg width="640" height="426" viewBox="0 0 640 426" fill="none" xmlns="http://www.w3.org/2000/svg">
<rect width="640" height="426" fill="#5F3AC8"/>
<g clip-path="url(#clip0_8_3)">
<path d="M251.333 76C232.396 76 217 91.3964 217 110.333V316.333C217 335.27 232.396 350.667 251.333 350.667H388.667C407.604 350.667 423 335.27 423 316.333V161.833H354.333C344.838 161.833 337.167 154.162 337.167 144.667V76H251.333ZM354.333 76V144.667H423L354.333 76ZM277.083 213.333H362.917C367.637 213.333 371.5 217.196 371.5 221.917C371.5 226.638 367.637 230.5 362.917 230.5H277.083C272.362 230.5 268.5 226.638 268.5 221.917C268.5 217.196 272.362 213.333 277.083 213.333ZM277.083 247.667H362.917C367.637 247.667 371.5 251.529 371.5 256.25C371.5 260.971 367.637 264.833 362.917 264.833H277.083C272.362 264.833 268.5 260.971 268.5 256.25C268.5 251.529 272.362 247.667 277.083 247.667ZM277.083 282H362.917C367.637 282 371.5 285.863 371.5 290.583C371.5 295.304 367.637 299.167 362.917 299.167H277.083C272.362 299.167 268.5 295.304 268.5 290.583C268.5 285.863 272.362 282 277.083 282Z" fill="white" fill-opacity="0.5"/>
</g>
<defs>
<clipPath id="clip0_8_3">
<rect width="206" height="274.667" fill="white" transform="translate(217 76)"/>
</clipPath>
</defs>
</svg>
