<svg width="640" height="426" viewBox="0 0 640 426" fill="none" xmlns="http://www.w3.org/2000/svg">
<rect width="640" height="426" fill="#D9D9D9"/>
<rect width="320" height="213" fill="#61A0FF"/>
<rect x="320" width="320" height="213" fill="#D9D9D9"/>
<rect y="213" width="320" height="213" fill="#D9D9D9"/>
<rect x="320" y="213" width="320" height="213" fill="#D9D9D9"/>
<path d="M281.75 102.5H358.25C360.587 102.5 362.5 104.413 362.5 106.75V128H277.5V106.75C277.5 104.413 279.412 102.5 281.75 102.5ZM252 106.75V128H218C199.247 128 184 143.247 184 162V213H286H354H456V162C456 143.247 440.753 128 422 128H388V106.75C388 90.3344 374.666 77 358.25 77H281.75C265.334 77 252 90.3344 252 106.75ZM456 230H354V247C354 256.403 346.403 264 337 264H303C293.597 264 286 256.403 286 247V230H184V298C184 316.753 199.247 332 218 332H422C440.753 332 456 316.753 456 298V230Z" fill="black" fill-opacity="0.5"/>
</svg>
